<svg id="Desktop-Computer--Streamline-Openmoji" viewBox="0 0 32 32" xmlns="http://www.w3.org/2000/svg" height="32" width="32">
  <desc>
    Desktop Computer Streamline Emoji: https://streamlinehq.com
  </desc>
  <g id="color">
    <path fill="#d0cfce" d="M19.780666666666665 26.188711111111107c0 2.3519555555555556 3.718977777777777 3.340222222222222 3.718977777777777 3.340222222222222H8.50031111111111s3.718977777777777 -0.9882222222222222 3.718977777777777 -3.340222222222222v-2.340311111111111h7.484622222222221l0.07675555555555555 2.340311111111111Z" stroke-width="0.4444"></path>
    <path fill="#9b9b9a" d="M28.798488888888887 23.836711111111107H3.201511111111111c-1.3294222222222223 0 -2.4071555555555553 -1.0777333333333332 -2.4071555555555553 -2.4071555555555553V4.878222222222222c0 -1.3294222222222223 1.0777333333333332 -2.4071555555555553 2.4071555555555553 -2.4071555555555553h25.596977777777777c1.3294222222222223 0 2.4071555555555553 1.0777333333333332 2.4071555555555553 2.4071555555555553v16.551333333333332c0 1.3294222222222223 -1.0777333333333332 2.4071555555555553 -2.4071555555555553 2.4071555555555553Z" stroke-width="0.4444"></path>
    <path fill="#ffffff" d="M30.863244444444444 19.435377777777777 0.8206666666666667 8.752533333333334V4.2663111111111105c0 -0.8754222222222222 0.8666666666666666 -1.487111111111111 1.691511111111111 -1.1938222222222221l28.351066666666668 10.081333333333333v6.281555555555555Z" stroke-width="0.4444"></path>
    <path fill="#d0cfce" d="M31.20564444444444 19.83453333333333s0.10066666666666667 1.9658222222222221 -0.7352 2.884311111111111c-0.1703111111111111 0.1871111111111111 -1.2545777777777778 0.8798666666666666 -1.6719555555555554 0.8792l-25.596977777777777 0.23719999999999997c-1.3294222222222223 0 -1.9752 -0.8785333333333333 -1.9752 -1.1590666666666665l-0.43195555555555554 -2.8416444444444444" stroke-width="0.4444"></path>
  </g>
  <g id="line">
    <path fill="none" stroke="#000000" stroke-linecap="round" stroke-linejoin="round" stroke-width="0.8889" d="M28.798488888888887 23.836711111111107H3.201511111111111c-1.3294222222222223 0 -2.4071555555555553 -1.0777333333333332 -2.4071555555555553 -2.4071555555555553V4.878222222222222c0 -1.3294222222222223 1.0777333333333332 -2.4071555555555553 2.4071555555555553 -2.4071555555555553h25.596977777777777c1.3294222222222223 0 2.4071555555555553 1.0777333333333332 2.4071555555555553 2.4071555555555553v16.551333333333332c0 1.3294222222222223 -1.0777333333333332 2.4071555555555553 -2.4071555555555553 2.4071555555555553Z"></path>
    <path fill="none" stroke="#000000" stroke-linecap="round" stroke-linejoin="round" stroke-width="0.4084" d="m28.798488888888887 23.479466666666667 -25.596977777777777 0.35577777777777775c-1.3294222222222223 0 -1.9752 -0.8785333333333333 -1.9752 -1.1590666666666665l-0.43195555555555554 -2.8416444444444444"></path>
    <path fill="none" stroke="#000000" stroke-linecap="round" stroke-linejoin="round" stroke-width="0.8889" d="m28.798488888888887 23.59951111111111 -25.596977777777777 0.23719999999999997c-1.3294222222222223 0 -2.4071555555555553 -1.0777333333333332 -2.4071555555555553 -2.4071555555555553V4.878222222222222c0 -1.3294222222222223 1.0777333333333332 -2.4071555555555553 2.4071555555555553 -2.4071555555555553h25.596977777777777c1.3294222222222223 0 2.4071555555555553 1.0777333333333332 2.4071555555555553 2.4071555555555553l-0.23715555555555554 16.551333333333332c0 1.3294222222222223 -0.8405777777777778 2.169955555555555 -2.17 2.169955555555555Z"></path>
    <path fill="none" stroke="#000000" stroke-linecap="round" stroke-linejoin="round" stroke-width="0.8889" d="M2.243733333333333 20.275466666666663h27.51253333333333"></path>
    <path fill="none" stroke="#000000" stroke-linecap="round" stroke-linejoin="round" stroke-width="0.8889" d="M19.30631111111111 26.188711111111107c0 2.3519555555555556 4.193333333333333 3.340222222222222 4.193333333333333 3.340222222222222H8.50031111111111s4.193333333333333 -0.9882222222222222 4.193333333333333 -3.340222222222222"></path>
  </g>
</svg>